<?xml version="1.0" ?><svg id="Layer_1" style="enable-background:new 0 0 24 24;" version="1.1" viewBox="0 0 24 24" xml:space="preserve" xmlns="http://www.w3.org/2000/svg" xmlns:xlink="http://www.w3.org/1999/xlink"><title/><g id="Snowman"><g><path d="M7.73,12.11c-2.707,2.358-2.989,6.464-0.631,9.171s6.464,2.989,9.171,0.631    s2.989-6.464,0.631-9.171c-0.196-0.224-0.406-0.435-0.631-0.631H7.73z" style="fill:#F8F8F8;"/><path d="M7.5,17c-0.053-1.751,0.474-3.47,1.5-4.89H7.73c-2.706,2.35-2.995,6.449-0.644,9.156    c1.236,1.423,3.03,2.239,4.914,2.234C9.51,23.5,7.5,20.59,7.5,17z" style="fill:#FFFFFF;"/><path d="M16.27,12.11H15c1.026,1.42,1.553,3.139,1.5,4.89c0,3.59-2,6.5-4.5,6.5    c3.584,0.008,6.496-2.891,6.504-6.476C18.509,15.14,17.693,13.346,16.27,12.11z" style="opacity:0.1;enable-background:new    ;"/><path d="M9.19,5.4L8.94,5.47c-1.209,1.447-1.209,3.553,0,5h6.18c1.209-1.447,1.209-3.553,0-5L14.87,5.4    H9.19z" style="fill:#F8F8F8;"/><path d="M10.08,5.47l0.16-0.07H9.19L8.94,5.47c-1.209,1.447-1.209,3.553,0,5h1.16    C9.71,9.705,9.505,8.859,9.5,8C9.49,7.123,9.689,6.256,10.08,5.47z" style="fill:#FFFFFF;"/><path d="M15.07,5.47L14.82,5.4h-1.06l0.16,0.07C14.311,6.256,14.51,7.123,14.5,8    c0.009,0.867-0.186,1.723-0.57,2.5h1.16c1.209-1.447,1.209-3.553,0-5L15.07,5.47z" style="opacity:0.1;enable-background:new    ;"/><path d="M14.74,5.28l0.73-4.23c0,0-0.73-0.55-3.47-0.55S8.53,1.05,8.53,1.05l0.73,4.26L14.74,5.28z" style="fill:#303C42;"/><path d="M8.5,10.5h7c0.552,0,1,0.448,1,1l0,0c0,0.552-0.448,1-1,1h-7c-0.552,0-1-0.448-1-1l0,0    C7.5,10.948,7.948,10.5,8.5,10.5z" style="fill:#D51C29;"/><path d="M9,11.5c0-0.552,0.448-1,1-1H8.5c-0.552,0-1,0.448-1,1    s0.448,1,1,1H10C9.448,12.5,9,12.052,9,11.5z" style="opacity:0.2;fill:#FFFFFF;enable-background:new    ;"/><path d="M15,11.5c0,0.552-0.448,1-1,1h1.5c0.552,0,1-0.448,1-1s-0.448-1-1-1H14    C14.552,10.5,15,10.948,15,11.5z" style="opacity:0.1;enable-background:new    ;"/><polyline points="13.5,12.5 13.5,15.5 14.5,15 15.5,15.5 15.5,12.5   " style="fill:#D51C29;"/><path d="M12,9c-0.276,0-0.5-0.224-0.5-0.5V8c0-0.276,0.224-0.5,0.5-0.5h2    c0.276-0.033,0.527,0.164,0.56,0.44c0.033,0.276-0.164,0.527-0.44,0.56l-2,0.5H12z" style="fill:#F99F38;"/><g><circle cx="12" cy="15.5" r="0.5" style="fill:#303C42;"/><circle cx="12" cy="18" r="0.5" style="fill:#303C42;"/><circle cx="10.5" cy="6.5" r="0.5" style="fill:#303C42;"/><circle cx="13.5" cy="6.5" r="0.5" style="fill:#303C42;"/><path d="M16.9,12c0.288-0.765-0.098-1.619-0.863-1.907c-0.012-0.005-0.024-0.009-0.037-0.013     c0.633-1.144,0.706-2.515,0.2-3.72l0.25,0.1C16.704,6.57,17,6.454,17.11,6.2s-0.006-0.55-0.26-0.66     C16.341,5.329,15.82,5.149,15.29,5L16,1.13c0.031-0.183-0.043-0.368-0.19-0.48C15.63,0.54,14.77,0,12,0S8.37,0.54,8.23,0.65     C8.067,0.753,7.978,0.939,8,1.13L8.71,5C8.19,5.146,7.679,5.323,7.18,5.53C6.926,5.64,6.81,5.936,6.92,6.19     c0.11,0.254,0.406,0.37,0.66,0.26l0.25-0.1C7.311,7.554,7.374,8.929,8,10.08c-0.772,0.268-1.181,1.111-0.913,1.883     C7.091,11.976,7.095,11.988,7.1,12c-2.761,2.706-2.805,7.138-0.099,9.899s7.138,2.805,9.899,0.099s2.805-7.138,0.099-9.899     C16.966,12.066,16.933,12.033,16.9,12z M14,13h1v1.69l-0.28-0.14c-0.142-0.071-0.308-0.071-0.45,0l-0.28,0.14L14,13z M9.09,1.34     C10.036,1.072,11.018,0.957,12,1c0.982-0.042,1.964,0.073,2.91,0.34l-0.59,3.43C13.558,4.599,12.781,4.508,12,4.5     c-0.781,0.008-1.558,0.099-2.32,0.27L9.09,1.34z M9.62,5.81h4.66l0.5,0.13c0.925,1.206,0.925,2.884,0,4.09H9.17     c-0.925-1.206-0.925-2.884,0-4.09L9.62,5.81z M8.5,11h7c0.276,0,0.5,0.224,0.5,0.5c-0.001,0.1-0.032,0.198-0.09,0.28l0,0v0.05     c-0.093,0.1-0.223,0.158-0.36,0.16h-7c-0.137-0.001-0.268-0.059-0.36-0.16v-0.05l0,0C8.095,11.712,8.028,11.613,8,11.5     C8,11.224,8.224,11,8.5,11z M12,23c-3.314-0.014-5.989-2.711-5.975-6.025c0.007-1.567,0.626-3.069,1.725-4.185     C7.977,12.926,8.236,12.998,8.5,13H13v2.5c-0.001,0.276,0.223,0.5,0.499,0.501c0.077,0,0.152-0.017,0.221-0.051l0.78-0.39     l0.78,0.39C15.349,15.983,15.424,16,15.5,16c0.276,0,0.5-0.224,0.5-0.5v-2.59l0.25-0.12c2.325,2.361,2.296,6.16-0.065,8.485     C15.069,22.374,13.567,22.993,12,23z" style="fill:#303C42;"/></g><circle cx="12" cy="15.5" r="0.5" style="fill:#303C42;"/><circle cx="12" cy="18" r="0.5" style="fill:#303C42;"/><circle cx="10.5" cy="6.5" r="0.5" style="fill:#303C42;"/><circle cx="13.5" cy="6.5" r="0.5" style="fill:#303C42;"/><linearGradient gradientTransform="matrix(1 0 0 -1 0 24)" gradientUnits="userSpaceOnUse" id="SVGID_1_" x1="4.582" x2="20.3565" y1="15.6642" y2="8.3174"><stop offset="0" style="stop-color:#FFFFFF;stop-opacity:0.2"/><stop offset="1" style="stop-color:#FFFFFF;stop-opacity:0"/></linearGradient><path d="M16.9,12c0.288-0.765-0.098-1.619-0.863-1.907c-0.012-0.005-0.024-0.009-0.037-0.013    c0.633-1.144,0.706-2.515,0.2-3.72l0.25,0.1C16.704,6.57,17,6.454,17.11,6.2s-0.006-0.55-0.26-0.66    C16.341,5.329,15.82,5.149,15.29,5L16,1.13c0.031-0.183-0.043-0.368-0.19-0.48C15.63,0.54,14.77,0,12,0S8.37,0.54,8.23,0.65    C8.067,0.753,7.978,0.939,8,1.13L8.71,5C8.19,5.146,7.679,5.323,7.18,5.53C6.926,5.64,6.81,5.936,6.92,6.19    c0.11,0.254,0.406,0.37,0.66,0.26l0.25-0.1C7.311,7.554,7.374,8.929,8,10.08c-0.772,0.268-1.181,1.111-0.913,1.883    C7.091,11.976,7.095,11.988,7.1,12c-2.761,2.706-2.805,7.138-0.099,9.899s7.138,2.805,9.899,0.099s2.805-7.138,0.099-9.899    C16.966,12.066,16.933,12.033,16.9,12z" style="fill:url(#SVGID_1_);"/></g></g></svg>